<?xml version="1.0" encoding="UTF-8"?>
<!DOCTYPE svg PUBLIC "-//W3C//DTD SVG 1.1//EN" "http://www.w3.org/Graphics/SVG/1.1/DTD/svg11.dtd">
<svg xmlns="http://www.w3.org/2000/svg" version="1.1" width="500px" height="500px" style="shape-rendering:geometricPrecision; text-rendering:geometricPrecision; image-rendering:optimizeQuality; fill-rule:evenodd; clip-rule:evenodd" xmlns:xlink="http://www.w3.org/1999/xlink">
<g><path style="opacity:1" fill="#98da7c" d="M 388.5,246.5 C 388.664,243.813 388.497,241.146 388,238.5C 372.859,304.979 332.692,348.479 267.5,369C 219.763,380.787 175.097,373.787 133.5,348C 127.46,342.99 121.126,338.49 114.5,334.5C 118.221,330.112 122.221,326.112 126.5,322.5C 127.167,323.5 127.833,324.5 128.5,325.5C 126.645,325.272 125.812,325.939 126,327.5C 163.034,360.157 206.2,371.991 255.5,363C 302.918,351.33 336.584,322.997 356.5,278C 373.73,228.135 367.563,181.302 338,137.5C 332.311,132.985 328.478,127.651 326.5,121.5C 330.605,117.898 334.605,114.065 338.5,110C 340.5,109.333 342.5,109.333 344.5,110C 380.138,148.748 394.805,194.248 388.5,246.5 Z"/></g>
<g><path style="opacity:1" fill="#fd4755" d="M 322.5,126.5 C 355.71,161.132 368.377,202.132 360.5,249.5C 361.084,244.501 361.251,239.501 361,234.5C 342.257,305.56 296.09,343.393 222.5,348C 190.396,347.29 161.729,336.624 136.5,316C 135.552,315.517 134.552,315.351 133.5,315.5C 196.167,252.167 259.167,189.167 322.5,126.5 Z"/></g>
<g><path style="opacity:1" fill="#655353" d="M 292.5,166.5 C 298.488,166.664 299.821,169.164 296.5,174C 294.888,174.72 293.388,174.554 292,173.5C 291.297,171.071 291.463,168.738 292.5,166.5 Z"/></g>
<g><path style="opacity:1" fill="#595353" d="M 302.5,166.5 C 308.842,166.334 315.175,166.5 321.5,167C 322.423,169.041 322.756,171.208 322.5,173.5C 315.5,173.5 308.5,173.5 301.5,173.5C 301.298,171.05 301.631,168.717 302.5,166.5 Z"/></g>
<g><path style="opacity:1" fill="#5b5353" d="M 301.5,181.5 C 306.794,181.233 308.461,183.567 306.5,188.5C 306.919,189.672 307.585,190.672 308.5,191.5C 312.111,192.262 315.778,192.762 319.5,193C 320.591,195.064 320.758,197.231 320,199.5C 313.493,199.96 306.993,199.293 300.5,197.5C 299.048,194.718 299.381,192.218 301.5,190C 300.321,187.204 300.321,184.371 301.5,181.5 Z"/></g>
<g><path style="opacity:1" fill="#5a5353" d="M 296.5,206.5 C 303.338,207.39 309.838,209.39 316,212.5C 316.667,213.833 316.667,215.167 316,216.5C 314.323,220.433 312.49,224.267 310.5,228C 300.759,232.463 294.759,229.463 292.5,219C 294.644,215.133 295.978,210.966 296.5,206.5 Z"/></g>
<g><path style="opacity:1" fill="#f14854" d="M 301.5,215.5 C 306.328,215.385 307.661,217.552 305.5,222C 299.738,222.418 298.404,220.251 301.5,215.5 Z"/></g>
<g><path style="opacity:1" fill="#595353" d="M 284.5,235.5 C 292.623,235.395 298.956,238.729 303.5,245.5C 302.46,247.375 300.96,248.708 299,249.5C 296.428,247.794 293.928,245.961 291.5,244C 289.866,243.506 288.199,243.34 286.5,243.5C 286.238,244.978 286.571,246.311 287.5,247.5C 290.091,249.38 292.591,251.38 295,253.5C 296.072,256.553 295.072,258.553 292,259.5C 289.268,257.548 286.435,255.715 283.5,254C 282.207,253.51 280.873,253.343 279.5,253.5C 279.343,254.873 279.51,256.207 280,257.5C 282.667,259.5 285.333,261.5 288,263.5C 288.597,266.307 287.597,268.307 285,269.5C 280.097,266.296 275.263,262.963 270.5,259.5C 268.426,255.161 269.759,253.161 274.5,253.5C 273.284,247.716 275.618,245.049 281.5,245.5C 280.857,241.567 281.857,238.234 284.5,235.5 Z"/></g>
<g><path style="opacity:0.999" fill="#85d465" d="M 388.5,246.5 C 378.979,306.393 346.979,349.559 292.5,376C 228.893,401.342 170.227,393.008 116.5,351C 113.123,348.477 110.79,345.31 109.5,341.5C 109.981,338.348 111.647,336.015 114.5,334.5C 121.126,338.49 127.46,342.99 133.5,348C 175.097,373.787 219.763,380.787 267.5,369C 332.692,348.479 372.859,304.979 388,238.5C 388.497,241.146 388.664,243.813 388.5,246.5 Z"/></g>
<g><path style="opacity:1" fill="#fa2f3a" d="M 360.5,249.5 C 348.274,304.562 315.274,340.728 261.5,358C 211.502,369.917 167.169,359.083 128.5,325.5C 127.833,324.5 127.167,323.5 126.5,322.5C 126.369,321.761 126.536,321.094 127,320.5C 129.287,318.946 131.454,317.279 133.5,315.5C 134.552,315.351 135.552,315.517 136.5,316C 161.729,336.624 190.396,347.29 222.5,348C 296.09,343.393 342.257,305.56 361,234.5C 361.251,239.501 361.084,244.501 360.5,249.5 Z"/></g>
<g><path style="opacity:1" fill="#5a5353" d="M 260.5,263.5 C 262.39,263.297 263.89,263.963 265,265.5C 268.181,270.011 271.348,274.511 274.5,279C 273.411,281.624 271.411,283.124 268.5,283.5C 267.151,287.179 264.484,288.845 260.5,288.5C 253.721,287.06 249.054,283.06 246.5,276.5C 246.775,274.391 247.942,273.058 250,272.5C 253.488,274.654 256.321,277.488 258.5,281C 263.083,281.934 264.583,280.1 263,275.5C 260.971,272.971 259.138,270.304 257.5,267.5C 258.172,265.84 259.172,264.507 260.5,263.5 Z"/></g>
<g><path style="opacity:1" fill="#9bd579" d="M 326.5,121.5 C 328.478,127.651 332.311,132.985 338,137.5C 367.563,181.302 373.73,228.135 356.5,278C 336.584,322.997 302.918,351.33 255.5,363C 206.2,371.991 163.034,360.157 126,327.5C 125.812,325.939 126.645,325.272 128.5,325.5C 167.169,359.083 211.502,369.917 261.5,358C 315.274,340.728 348.274,304.562 360.5,249.5C 368.377,202.132 355.71,161.132 322.5,126.5C 323.124,124.246 324.457,122.579 326.5,121.5 Z"/></g>
<g><path style="opacity:1" fill="#5a5353" d="M 232.5,281.5 C 234.833,281.5 237.167,281.5 239.5,281.5C 239.66,283.199 239.494,284.866 239,286.5C 236.499,286.95 234.333,287.95 232.5,289.5C 236.048,289.619 239.715,289.785 243.5,290C 246.097,292.317 246.93,295.15 246,298.5C 241.983,303.424 236.816,305.424 230.5,304.5C 230.261,302.533 230.594,300.699 231.5,299C 234.451,298.904 237.118,298.071 239.5,296.5C 236.283,296.342 232.95,296.175 229.5,296C 223.524,289.715 224.524,284.882 232.5,281.5 Z"/></g>
<g><path style="opacity:1" fill="#5b5353" d="M 204.5,284.5 C 208.697,284.194 210.697,286.194 210.5,290.5C 216.113,289.079 218.28,291.079 217,296.5C 215.644,297.38 214.144,297.714 212.5,297.5C 212.517,302.203 214.85,304.87 219.5,305.5C 220.767,307.371 220.767,309.204 219.5,311C 210.788,313.485 206.454,309.985 206.5,300.5C 202.94,301.109 200.94,299.609 200.5,296C 201.756,294.521 202.756,292.855 203.5,291C 201.965,288.391 202.298,286.225 204.5,284.5 Z"/></g>
<g><path style="opacity:1" fill="#595353" d="M 188.5,294.5 C 190.144,294.286 191.644,294.62 193,295.5C 193.999,302.15 194.333,308.817 194,315.5C 191.408,316.982 189.075,316.648 187,314.5C 181.061,317.93 176.394,316.596 173,310.5C 170.861,299.816 175.027,295.149 185.5,296.5C 186.739,296.058 187.739,295.391 188.5,294.5 Z"/></g>
<g><path style="opacity:1" fill="#f54754" d="M 180.5,302.5 C 186.016,302.473 187.349,304.64 184.5,309C 179.57,309.427 178.237,307.26 180.5,302.5 Z"/></g>
</svg>
