<?xml version="1.0" encoding="UTF-8"?>
<!DOCTYPE svg PUBLIC "-//W3C//DTD SVG 1.1//EN" "http://www.w3.org/Graphics/SVG/1.1/DTD/svg11.dtd">
<svg xmlns="http://www.w3.org/2000/svg" version="1.1" width="560px" height="170px" style="shape-rendering:geometricPrecision; text-rendering:geometricPrecision; image-rendering:optimizeQuality; fill-rule:evenodd; clip-rule:evenodd" xmlns:xlink="http://www.w3.org/1999/xlink">
<g><path style="opacity:1" fill="#ff515a" d="M 518.5,32.5 C 518.427,34.0269 519.094,35.0269 520.5,35.5C 520.888,40.6278 520.388,45.6278 519,50.5C 518.25,51.1258 517.416,51.6258 516.5,52C 512.848,52.4986 509.182,52.6653 505.5,52.5C 502.192,53.0262 500.026,51.6928 499,48.5C 495.911,31.7762 502.411,26.4429 518.5,32.5 Z"/></g>
<g><path style="opacity:0.682" fill="#edbca8" d="M 518.5,32.5 C 519.5,32.8333 520.167,33.5 520.5,34.5C 520.5,34.8333 520.5,35.1667 520.5,35.5C 519.094,35.0269 518.427,34.0269 518.5,32.5 Z"/></g>
<g><path style="opacity:0.98" fill="#a8db87" d="M 520.5,34.5 C 522.099,34.2322 523.432,34.5655 524.5,35.5C 525.407,41.1064 525.74,46.773 525.5,52.5C 525.423,53.7498 524.756,54.5831 523.5,55C 518.5,57 513.5,57 508.5,55C 507.058,54.6232 506.058,53.7899 505.5,52.5C 509.182,52.6653 512.848,52.4986 516.5,52C 517.416,51.6258 518.25,51.1258 519,50.5C 520.388,45.6278 520.888,40.6278 520.5,35.5C 520.5,35.1667 520.5,34.8333 520.5,34.5 Z"/></g>
<g><path style="opacity:1" fill="#ff4b57" d="M 119.5,42.5 C 120.131,49.1128 120.798,55.7794 121.5,62.5C 122.736,61.7542 124.07,61.4208 125.5,61.5C 126.167,61.5 126.833,61.5 127.5,61.5C 129.857,61.3367 132.19,61.5034 134.5,62C 136.32,62.2004 137.653,63.0337 138.5,64.5C 139.951,70.1989 139.784,75.8656 138,81.5C 137.25,82.1258 136.416,82.6258 135.5,83C 130.511,83.4993 125.511,83.6659 120.5,83.5C 120.334,90.175 120.5,96.8417 121,103.5C 122.287,106.145 124.453,107.145 127.5,106.5C 130.716,106.345 133.383,107.345 135.5,109.5C 137.298,115.37 136.631,120.87 133.5,126C 126.913,127.748 120.247,127.914 113.5,126.5C 110.669,125.921 108.336,124.588 106.5,122.5C 105.118,120.451 103.452,118.785 101.5,117.5C 100.406,115.641 99.5725,113.641 99,111.5C 98.5003,103.173 98.3336,94.84 98.5,86.5C 98.5,85.5 98.5,84.5 98.5,83.5C 96.5,83.5 94.5,83.5 92.5,83.5C 91.8333,83.5 91.1667,83.5 90.5,83.5C 90.5,82.8333 90.1667,82.5 89.5,82.5C 87.2315,76.6623 86.8982,70.6623 88.5,64.5C 88.5,63.8333 88.8333,63.5 89.5,63.5C 92.7644,62.6758 96.0977,62.3424 99.5,62.5C 99.24,55.443 99.5733,48.443 100.5,41.5C 102.911,39.1403 105.911,38.1403 109.5,38.5C 113.66,38.1016 116.993,39.4349 119.5,42.5 Z"/></g>
<g><path style="opacity:1" fill="#b1e8c7" d="M 524.5,35.5 C 525.79,36.0577 526.623,37.0577 527,38.5C 527.167,40.5 527.333,42.5 527.5,44.5C 527.713,47.5267 527.047,50.1934 525.5,52.5C 525.74,46.773 525.407,41.1064 524.5,35.5 Z"/></g>
<g><path style="opacity:0.997" fill="#a8d77f" d="M 119.5,42.5 C 121.099,42.2322 122.432,42.5655 123.5,43.5C 125.355,49.2518 126.022,55.2518 125.5,61.5C 124.07,61.4208 122.736,61.7542 121.5,62.5C 120.798,55.7794 120.131,49.1128 119.5,42.5 Z"/></g>
<g><path style="opacity:0.925" fill="#ff9373" d="M 100.5,41.5 C 99.5733,48.443 99.24,55.443 99.5,62.5C 96.0977,62.3424 92.7644,62.6758 89.5,63.5C 89.6107,62.8826 89.944,62.3826 90.5,62C 93.146,61.5026 95.8127,61.3359 98.5,61.5C 98.3338,55.1579 98.5005,48.8246 99,42.5C 99.3826,41.944 99.8826,41.6107 100.5,41.5 Z"/></g>
<g><path style="opacity:0.947" fill="#ade7c4" d="M 123.5,43.5 C 125.61,44.4525 126.777,46.1192 127,48.5C 127.499,52.8206 127.666,57.1539 127.5,61.5C 126.833,61.5 126.167,61.5 125.5,61.5C 126.022,55.2518 125.355,49.2518 123.5,43.5 Z"/></g>
<g><path style="opacity:1" fill="#ff4e58" d="M 192.5,66.5 C 193.715,71.6157 192.382,76.1157 188.5,80C 186.655,81.128 184.655,81.628 182.5,81.5C 177.348,78.2989 171.681,77.1323 165.5,78C 162.537,82.2658 163.87,84.4324 169.5,84.5C 177.184,85.0613 184.184,87.3946 190.5,91.5C 198.949,102.855 198.282,113.688 188.5,124C 176.787,128.875 164.787,129.709 152.5,126.5C 149.378,125.439 146.378,124.105 143.5,122.5C 143.167,121.5 142.5,120.833 141.5,120.5C 141.264,117.391 141.597,114.391 142.5,111.5C 143.906,111.027 144.573,110.027 144.5,108.5C 145.906,108.027 146.573,107.027 146.5,105.5C 148.628,104.371 150.961,104.204 153.5,105C 159.882,109.746 166.882,111.246 174.5,109.5C 175.828,108.09 175.495,106.924 173.5,106C 169.218,104.843 164.884,104.01 160.5,103.5C 157.515,102.674 154.849,101.341 152.5,99.5C 152.027,98.0937 151.027,97.427 149.5,97.5C 145.925,94.35 143.925,90.35 143.5,85.5C 142.89,79.4889 143.89,73.8222 146.5,68.5C 148.004,66.1644 150.004,64.331 152.5,63C 166.469,57.9286 179.803,59.0953 192.5,66.5 Z"/></g>
<g><path style="opacity:1" fill="#ff4d57" d="M 221.5,64.5 C 222.022,76.5254 222.856,88.5254 224,100.5C 226.984,104.934 230.818,106.267 235.5,104.5C 239.417,103.752 241.917,101.418 243,97.5C 243.333,87.1667 243.667,76.8333 244,66.5C 246.205,62.0385 249.872,60.3718 255,61.5C 259.07,60.9792 262.57,61.9792 265.5,64.5C 266.641,83.4565 266.808,102.456 266,121.5C 265.426,123.492 264.259,124.992 262.5,126C 258.605,127.266 254.605,127.766 250.5,127.5C 249.391,127.443 248.391,127.11 247.5,126.5C 245.73,124.887 244.564,122.887 244,120.5C 237.367,126.95 229.534,128.95 220.5,126.5C 218.847,126.34 217.514,125.674 216.5,124.5C 216.027,123.094 215.027,122.427 213.5,122.5C 212.738,120.738 211.404,119.738 209.5,119.5C 206.723,117.049 204.723,114.049 203.5,110.5C 203.443,109.391 203.11,108.391 202.5,107.5C 202.029,105.421 201.363,103.421 200.5,101.5C 200.5,89.8333 200.5,78.1667 200.5,66.5C 200.859,64.629 201.859,63.129 203.5,62C 208.167,61.3333 212.833,61.3333 217.5,62C 218.984,62.6622 220.317,63.4955 221.5,64.5 Z"/></g>
<g><path style="opacity:1" fill="#ff4c57" d="M 292.5,64.5 C 293.348,70.6157 295.015,70.949 297.5,65.5C 300.51,62.1287 304.344,60.7954 309,61.5C 313.837,61.0151 318.004,62.3484 321.5,65.5C 323.127,67.6298 324.96,69.6298 327,71.5C 327.717,70.9558 328.217,70.2891 328.5,69.5C 334.814,62.1199 342.814,59.6199 352.5,62C 354.727,62.941 356.727,64.1077 358.5,65.5C 360.403,66.9473 362.07,68.614 363.5,70.5C 365.481,73.9365 366.981,77.6032 368,81.5C 368.667,95.5 368.667,109.5 368,123.5C 366.786,125.049 365.286,126.215 363.5,127C 360.183,127.498 356.85,127.665 353.5,127.5C 350.439,127.556 348.272,126.222 347,123.5C 346.747,111.808 346.247,100.142 345.5,88.5C 342.9,83.2749 339.067,82.2749 334,85.5C 333.333,86.8333 332.667,88.1667 332,89.5C 331.667,100.5 331.333,111.5 331,122.5C 330.535,123.931 329.701,125.097 328.5,126C 324.605,127.266 320.605,127.766 316.5,127.5C 311.901,127.401 309.401,125.068 309,120.5C 308.5,109.839 308.333,99.1719 308.5,88.5C 307.622,85.2964 305.455,83.6298 302,83.5C 299.594,83.7029 297.594,84.7029 296,86.5C 294.707,98.4041 294.04,110.404 294,122.5C 293.065,125.102 291.232,126.602 288.5,127C 285.183,127.498 281.85,127.665 278.5,127.5C 276.067,127.727 274.401,126.727 273.5,124.5C 272.525,105.546 272.192,86.5464 272.5,67.5C 272.5,67.1667 272.5,66.8333 272.5,66.5C 273.906,66.0269 274.573,65.0269 274.5,63.5C 274.918,62.7784 275.584,62.2784 276.5,62C 280.833,61.3333 285.167,61.3333 289.5,62C 290.942,62.3768 291.942,63.2101 292.5,64.5 Z"/></g>
<g><path style="opacity:1" fill="#ff4b57" d="M 494.5,64.5 C 496.674,71.475 495.34,77.6417 490.5,83C 489.127,83.8749 487.627,84.3749 486,84.5C 479.154,81.0191 473.154,82.0191 468,87.5C 467.961,99.9288 467.294,112.262 466,124.5C 464.829,125.893 463.329,126.727 461.5,127C 458.518,127.498 455.518,127.665 452.5,127.5C 449.911,127.539 447.911,126.539 446.5,124.5C 445.526,106.213 445.193,87.88 445.5,69.5C 444.612,66.0816 445.945,63.5816 449.5,62C 454.167,61.3333 458.833,61.3333 463.5,62C 464.942,62.3768 465.942,63.2101 466.5,64.5C 467.14,67.6478 468.14,67.9812 469.5,65.5C 477.518,59.206 485.851,58.8726 494.5,64.5 Z"/></g>
<g><path style="opacity:1" fill="#ff4d57" d="M 60.5,65.5 C 60.4701,66.4972 60.9701,67.1639 62,67.5C 63.5947,66.6443 64.428,65.3109 64.5,63.5C 64.9175,62.7784 65.5842,62.2784 66.5,62C 70.8333,61.3333 75.1667,61.3333 79.5,62C 81.3197,62.2004 82.653,63.0337 83.5,64.5C 84.6418,83.7899 84.8084,103.123 84,122.5C 83.5348,123.931 82.7014,125.097 81.5,126C 77.6049,127.266 73.6049,127.766 69.5,127.5C 68.391,127.443 67.391,127.11 66.5,126.5C 64.485,125.475 63.1517,123.808 62.5,121.5C 55.814,127.288 48.1473,128.954 39.5,126.5C 28.2269,122.228 21.2269,114.228 18.5,102.5C 18.1518,95.0455 18.8185,87.7121 20.5,80.5C 20.8449,77.8021 22.1782,75.8021 24.5,74.5C 27.1667,72.5 29.5,70.1667 31.5,67.5C 37.7396,61.9566 45.0729,60.1233 53.5,62C 56.1392,62.6529 58.4726,63.8196 60.5,65.5 Z M 57.5,86.5 C 61.7164,92.435 61.3831,98.1017 56.5,103.5C 53.9039,104.265 51.2372,104.599 48.5,104.5C 48.3404,102.847 47.6737,101.514 46.5,100.5C 46.4013,97.7628 46.7347,95.0961 47.5,92.5C 49.5,91.1667 51.1667,89.5 52.5,87.5C 54.2161,87.3713 55.8828,87.038 57.5,86.5 Z"/></g>
<g><path style="opacity:1" fill="#ff4d57" d="M 415.5,65.5 C 415.47,66.4972 415.97,67.1639 417,67.5C 418.595,66.6443 419.428,65.3109 419.5,63.5C 419.918,62.7784 420.584,62.2784 421.5,62C 426.167,61.3333 430.833,61.3333 435.5,62C 436.942,62.3768 437.942,63.2101 438.5,64.5C 439.642,83.7899 439.808,103.123 439,122.5C 438.535,123.931 437.701,125.097 436.5,126C 432.605,127.266 428.605,127.766 424.5,127.5C 423.391,127.443 422.391,127.11 421.5,126.5C 419.485,125.475 418.152,123.808 417.5,121.5C 410.807,127.277 403.141,128.944 394.5,126.5C 386.29,123.621 380.29,118.288 376.5,110.5C 376.443,109.391 376.11,108.391 375.5,107.5C 375.204,105.597 374.537,103.93 373.5,102.5C 372.179,96.0871 372.512,89.7538 374.5,83.5C 374.884,79.7275 376.55,76.7275 379.5,74.5C 382.167,72.5 384.5,70.1667 386.5,67.5C 392.74,61.9566 400.073,60.1233 408.5,62C 411.139,62.6529 413.473,63.8196 415.5,65.5 Z M 412.5,86.5 C 416.716,92.435 416.383,98.1017 411.5,103.5C 408.904,104.265 406.237,104.599 403.5,104.5C 399.032,94.7691 402.032,88.7691 412.5,86.5 Z"/></g>
<g><path style="opacity:1" fill="#fe4c56" d="M 519.5,64.5 C 520.653,84.0935 520.82,103.76 520,123.5C 518.992,125.259 517.492,126.426 515.5,127C 512.183,127.498 508.85,127.665 505.5,127.5C 502.439,127.556 500.272,126.222 499,123.5C 498.5,110.838 498.333,98.1711 498.5,85.5C 498.209,79.077 498.542,72.7436 499.5,66.5C 499.22,63.6118 500.553,62.1118 503.5,62C 507.5,61.3333 511.5,61.3333 515.5,62C 517.066,62.6082 518.4,63.4415 519.5,64.5 Z"/></g>
<g><path style="opacity:0.914" fill="#a1db7f" d="M 83.5,64.5 C 85.2341,65.562 86.9008,65.562 88.5,64.5C 86.8982,70.6623 87.2315,76.6623 89.5,82.5C 89.8019,97.8813 89.4686,113.215 88.5,128.5C 88.0825,129.222 87.4158,129.722 86.5,130C 82.1667,130.667 77.8333,130.667 73.5,130C 71.6803,129.8 70.347,128.966 69.5,127.5C 73.6049,127.766 77.6049,127.266 81.5,126C 82.7014,125.097 83.5348,123.931 84,122.5C 84.8084,103.123 84.6418,83.7899 83.5,64.5 Z"/></g>
<g><path style="opacity:0.968" fill="#a9db8c" d="M 138.5,64.5 C 141.477,65.3218 144.144,66.6552 146.5,68.5C 143.89,73.8222 142.89,79.4889 143.5,85.5C 138.312,87.7153 132.978,88.0487 127.5,86.5C 127.5,93.1667 127.5,99.8333 127.5,106.5C 124.453,107.145 122.287,106.145 121,103.5C 120.5,96.8417 120.334,90.175 120.5,83.5C 125.511,83.6659 130.511,83.4993 135.5,83C 136.416,82.6258 137.25,82.1258 138,81.5C 139.784,75.8656 139.951,70.1989 138.5,64.5 Z"/></g>
<g><path style="opacity:0.424" fill="#9edb81" d="M 265.5,64.5 C 267.754,65.1237 269.421,66.457 270.5,68.5C 270.5,68.8333 270.5,69.1667 270.5,69.5C 269.85,69.8039 269.183,70.1373 268.5,70.5C 267.334,84.8217 267.167,99.1551 268,113.5C 268.216,111.616 268.883,109.949 270,108.5C 270.174,103.316 270.674,98.3165 271.5,93.5C 271.627,104.852 271.294,116.185 270.5,127.5C 269.942,128.79 268.942,129.623 267.5,130C 262.833,130.667 258.167,130.667 253.5,130C 252.058,129.623 251.058,128.79 250.5,127.5C 254.605,127.766 258.605,127.266 262.5,126C 264.259,124.992 265.426,123.492 266,121.5C 266.808,102.456 266.641,83.4565 265.5,64.5 Z"/></g>
<g><path style="opacity:0.486" fill="#ffc299" d="M 274.5,63.5 C 274.573,65.0269 273.906,66.0269 272.5,66.5C 272.427,64.9731 273.094,63.9731 274.5,63.5 Z"/></g>
<g><path style="opacity:0.027" fill="#c7d5a8" d="M 321.5,65.5 C 323.969,66.5686 326.302,67.9019 328.5,69.5C 328.217,70.2891 327.717,70.9558 327,71.5C 324.96,69.6298 323.127,67.6298 321.5,65.5 Z"/></g>
<g><path style="opacity:0.796" fill="#e9ab84" d="M 64.5,63.5 C 64.428,65.3109 63.5947,66.6443 62,67.5C 60.9701,67.1639 60.4701,66.4972 60.5,65.5C 61.1174,65.6107 61.6174,65.944 62,66.5C 62.3768,65.0577 63.2101,64.0577 64.5,63.5 Z"/></g>
<g><path style="opacity:1" fill="#a3db83" d="M 221.5,64.5 C 224.732,64.7717 226.732,66.4384 227.5,69.5C 227.333,80.1719 227.5,90.8385 228,101.5C 228.278,102.416 228.778,103.082 229.5,103.5C 231.379,104.341 233.379,104.675 235.5,104.5C 230.818,106.267 226.984,104.934 224,100.5C 222.856,88.5254 222.022,76.5254 221.5,64.5 Z"/></g>
<g><path style="opacity:0.325" fill="#bace83" d="M 292.5,64.5 C 294.117,65.038 295.784,65.3713 297.5,65.5C 295.015,70.949 293.348,70.6157 292.5,64.5 Z"/></g>
<g><path style="opacity:0.765" fill="#edac88" d="M 419.5,63.5 C 419.428,65.3109 418.595,66.6443 417,67.5C 415.97,67.1639 415.47,66.4972 415.5,65.5C 416.117,65.6107 416.617,65.944 417,66.5C 417.377,65.0577 418.21,64.0577 419.5,63.5 Z"/></g>
<g><path style="opacity:0.537" fill="#aada94" d="M 466.5,64.5 C 467.609,64.5569 468.609,64.8902 469.5,65.5C 468.14,67.9812 467.14,67.6478 466.5,64.5 Z"/></g>
<g><path style="opacity:0.99" fill="#a4d982" d="M 519.5,64.5 C 523.107,64.5647 525.44,66.2314 526.5,69.5C 526.796,88.8672 526.463,108.2 525.5,127.5C 524.942,128.79 523.942,129.623 522.5,130C 517.833,130.667 513.167,130.667 508.5,130C 507.058,129.623 506.058,128.79 505.5,127.5C 508.85,127.665 512.183,127.498 515.5,127C 517.492,126.426 518.992,125.259 520,123.5C 520.82,103.76 520.653,84.0935 519.5,64.5 Z"/></g>
<g><path style="opacity:0.979" fill="#a3dd8b" d="M 192.5,66.5 C 195.198,66.8449 197.198,68.1782 198.5,70.5C 198.425,73.2062 198.092,75.8728 197.5,78.5C 193.806,85.3962 188.806,86.3962 182.5,81.5C 184.655,81.628 186.655,81.128 188.5,80C 192.382,76.1157 193.715,71.6157 192.5,66.5 Z"/></g>
<g><path style="opacity:0.565" fill="#c1e9d2" d="M 358.5,65.5 C 365.941,67.9402 370.608,72.9402 372.5,80.5C 370.655,76.1808 367.822,72.5141 364,69.5C 363.601,69.7284 363.435,70.0618 363.5,70.5C 362.07,68.614 360.403,66.9473 358.5,65.5 Z"/></g>
<g><path style="opacity:0.438" fill="#f8e2ac" d="M 200.5,66.5 C 200.5,78.1667 200.5,89.8333 200.5,101.5C 199.263,100.035 198.263,98.3684 197.5,96.5C 199.459,90.2504 200.126,83.5837 199.5,76.5C 199.5,74.5 199.5,72.5 199.5,70.5C 199.232,68.901 199.566,67.5676 200.5,66.5 Z"/></g>
<g><path style="opacity:0.847" fill="#ffb092" d="M 31.5,67.5 C 29.5,70.1667 27.1667,72.5 24.5,74.5C 25.8333,71.1667 28.1667,68.8333 31.5,67.5 Z"/></g>
<g><path style="opacity:0.958" fill="#a5d881" d="M 372.5,80.5 C 373.167,81.5 373.833,82.5 374.5,83.5C 372.512,89.7538 372.179,96.0871 373.5,102.5C 373.5,110.5 373.5,118.5 373.5,126.5C 373.426,128.411 372.426,129.578 370.5,130C 365.833,130.667 361.167,130.667 356.5,130C 355.058,129.623 354.058,128.79 353.5,127.5C 356.85,127.665 360.183,127.498 363.5,127C 365.286,126.215 366.786,125.049 368,123.5C 368.667,109.5 368.667,95.5 368,81.5C 366.981,77.6032 365.481,73.9365 363.5,70.5C 363.435,70.0618 363.601,69.7284 364,69.5C 367.822,72.5141 370.655,76.1808 372.5,80.5 Z"/></g>
<g><path style="opacity:0.855" fill="#ffb092" d="M 386.5,67.5 C 384.5,70.1667 382.167,72.5 379.5,74.5C 380.833,71.1667 383.167,68.8333 386.5,67.5 Z"/></g>
<g><path style="opacity:0.125" fill="#bdf0f5" d="M 198.5,70.5 C 198.833,70.5 199.167,70.5 199.5,70.5C 199.5,72.5 199.5,74.5 199.5,76.5C 198.833,77.1667 198.167,77.8333 197.5,78.5C 198.092,75.8728 198.425,73.2062 198.5,70.5 Z"/></g>
<g><path style="opacity:0.073" fill="#a9e8b6" d="M 445.5,69.5 C 445.193,87.88 445.526,106.213 446.5,124.5C 445.272,125.306 444.272,126.306 443.5,127.5C 444.386,120.543 444.72,113.543 444.5,106.5C 444.171,93.9887 444.505,81.6554 445.5,69.5 Z"/></g>
<g><path style="opacity:0.357" fill="#c4f4fd" d="M 526.5,69.5 C 527.662,87.9955 527.829,106.662 527,125.5C 526.722,126.416 526.222,127.082 525.5,127.5C 526.463,108.2 526.796,88.8672 526.5,69.5 Z"/></g>
<g><path style="opacity:0.525" fill="#a8e9e5" d="M 227.5,69.5 C 228.23,80.6912 228.897,92.0245 229.5,103.5C 228.778,103.082 228.278,102.416 228,101.5C 227.5,90.8385 227.333,80.1719 227.5,69.5 Z"/></g>
<g><path style="opacity:0.189" fill="#b8d4a7" d="M 272.5,67.5 C 272.192,86.5464 272.525,105.546 273.5,124.5C 272.1,125.1 271.1,126.1 270.5,127.5C 271.294,116.185 271.627,104.852 271.5,93.5C 271.717,85.1019 271.384,77.1019 270.5,69.5C 270.5,69.1667 270.5,68.8333 270.5,68.5C 271.167,68.1667 271.833,67.8333 272.5,67.5 Z"/></g>
<g><path style="opacity:0.234" fill="#a5d680" d="M 182.5,81.5 C 178.155,80.2741 173.822,80.2741 169.5,81.5C 169.5,82.5 169.5,83.5 169.5,84.5C 163.87,84.4324 162.537,82.2658 165.5,78C 171.681,77.1323 177.348,78.2989 182.5,81.5 Z"/></g>
<g><path style="opacity:0.997" fill="#a4db86" d="M 494.5,64.5 C 496.167,65.1667 497.833,65.8333 499.5,66.5C 498.542,72.7436 498.209,79.077 498.5,85.5C 493.423,87.9529 488.256,87.9529 483,85.5C 480.317,86.093 477.817,87.093 475.5,88.5C 474.883,88.6107 474.383,88.944 474,89.5C 473.5,100.495 473.333,111.495 473.5,122.5C 473.854,125.961 472.521,128.461 469.5,130C 466.294,130.296 463.128,130.796 460,131.5C 456.952,130.999 454.452,129.666 452.5,127.5C 455.518,127.665 458.518,127.498 461.5,127C 463.329,126.727 464.829,125.893 466,124.5C 467.294,112.262 467.961,99.9288 468,87.5C 473.154,82.0191 479.154,81.0191 486,84.5C 487.627,84.3749 489.127,83.8749 490.5,83C 495.34,77.6417 496.674,71.475 494.5,64.5 Z"/></g>
<g><path style="opacity:0.982" fill="#9fda81" d="M 57.5,86.5 C 55.8828,87.038 54.2161,87.3713 52.5,87.5C 49.8333,88.1667 48.1667,89.8333 47.5,92.5C 45.9735,93.4919 45.3068,94.9919 45.5,97C 45.5143,98.3847 45.8476,99.5514 46.5,100.5C 47.6737,101.514 48.3404,102.847 48.5,104.5C 41.6024,102.38 39.1024,97.7134 41,90.5C 45.2276,83.0269 50.7276,81.6935 57.5,86.5 Z"/></g>
<g><path style="opacity:0.84" fill="#b5ead0" d="M 89.5,82.5 C 90.1667,82.5 90.5,82.8333 90.5,83.5C 91.6289,96.4547 91.7956,109.455 91,122.5C 90.9633,124.974 90.13,126.974 88.5,128.5C 89.4686,113.215 89.8019,97.8813 89.5,82.5 Z"/></g>
<g><path style="opacity:0.369" fill="#b7e08e" d="M 92.5,83.5 C 94.5,83.5 96.5,83.5 98.5,83.5C 98.5,84.5 98.5,85.5 98.5,86.5C 96.1815,86.0075 94.1815,85.0075 92.5,83.5 Z"/></g>
<g><path style="opacity:0.972" fill="#a4dc8d" d="M 412.5,86.5 C 402.032,88.7691 399.032,94.7691 403.5,104.5C 396.602,102.38 394.102,97.7134 396,90.5C 400.228,83.0269 405.728,81.6935 412.5,86.5 Z"/></g>
<g><path style="opacity:0.97" fill="#a3db81" d="M 308.5,88.5 C 305.432,86.8486 303.098,87.5152 301.5,90.5C 300.778,90.9175 300.278,91.5842 300,92.5C 299.792,104.212 299.292,115.879 298.5,127.5C 297.942,128.79 296.942,129.623 295.5,130C 289.157,132.788 283.491,131.955 278.5,127.5C 281.85,127.665 285.183,127.498 288.5,127C 291.232,126.602 293.065,125.102 294,122.5C 294.04,110.404 294.707,98.4041 296,86.5C 297.594,84.7029 299.594,83.7029 302,83.5C 305.455,83.6298 307.622,85.2964 308.5,88.5 Z"/></g>
<g><path style="opacity:0.984" fill="#a5d986" d="M 345.5,88.5 C 344.292,87.7659 342.959,87.4326 341.5,87.5C 339.589,87.5743 338.422,88.5743 338,90.5C 337.5,100.161 337.334,109.828 337.5,119.5C 337.663,121.857 337.497,124.19 337,126.5C 336.5,128.333 335.333,129.5 333.5,130C 328.833,130.667 324.167,130.667 319.5,130C 318.058,129.623 317.058,128.79 316.5,127.5C 320.605,127.766 324.605,127.266 328.5,126C 329.701,125.097 330.535,123.931 331,122.5C 331.333,111.5 331.667,100.5 332,89.5C 332.667,88.1667 333.333,86.8333 334,85.5C 339.067,82.2749 342.9,83.2749 345.5,88.5 Z"/></g>
<g><path style="opacity:0.008" fill="#dcf7f4" d="M 52.5,87.5 C 51.1667,89.5 49.5,91.1667 47.5,92.5C 48.1667,89.8333 49.8333,88.1667 52.5,87.5 Z"/></g>
<g><path style="opacity:0.739" fill="#ffb688" d="M 20.5,80.5 C 18.8185,87.7121 18.1518,95.0455 18.5,102.5C 17.3493,97.3497 17.1826,92.0164 18,86.5C 18.5662,84.2774 19.3995,82.2774 20.5,80.5 Z"/></g>
<g><path style="opacity:0.596" fill="#a4dc80" d="M 438.5,64.5 C 442.96,65.6463 443.794,67.6463 441,70.5C 440.445,82.1859 440.779,93.8526 442,105.5C 442.671,106.252 443.504,106.586 444.5,106.5C 444.72,113.543 444.386,120.543 443.5,127.5C 442.942,128.79 441.942,129.623 440.5,130C 436.167,130.667 431.833,130.667 427.5,130C 426.058,129.623 425.058,128.79 424.5,127.5C 428.605,127.766 432.605,127.266 436.5,126C 437.701,125.097 438.535,123.931 439,122.5C 439.808,103.123 439.642,83.7899 438.5,64.5 Z"/></g>
<g><path style="opacity:0.029" fill="#e3fdfd" d="M 475.5,88.5 C 474.874,99.9623 474.208,111.296 473.5,122.5C 473.333,111.495 473.5,100.495 474,89.5C 474.383,88.944 474.883,88.6107 475.5,88.5 Z"/></g>
<g><path style="opacity:0.991" fill="#a7dd8c" d="M 190.5,91.5 C 193.719,92.0693 196.052,93.736 197.5,96.5C 198.263,98.3684 199.263,100.035 200.5,101.5C 201.363,103.421 202.029,105.421 202.5,107.5C 201.527,109.948 201.194,112.615 201.5,115.5C 200.262,117.214 199.595,119.214 199.5,121.5C 197.979,125.115 195.313,127.615 191.5,129C 177.92,134.504 164.92,133.671 152.5,126.5C 164.787,129.709 176.787,128.875 188.5,124C 198.282,113.688 198.949,102.855 190.5,91.5 Z"/></g>
<g><path style="opacity:0.043" fill="#e1fcfd" d="M 341.5,87.5 C 340.496,88.6828 339.662,90.0161 339,91.5C 338.83,101.009 338.33,110.342 337.5,119.5C 337.334,109.828 337.5,100.161 338,90.5C 338.422,88.5743 339.589,87.5743 341.5,87.5 Z"/></g>
<g><path style="opacity:0.591" fill="#aceae6" d="M 301.5,90.5 C 300.751,102.475 300.251,114.475 300,126.5C 299.617,127.056 299.117,127.389 298.5,127.5C 299.292,115.879 299.792,104.212 300,92.5C 300.278,91.5842 300.778,90.9175 301.5,90.5 Z"/></g>
<g><path style="opacity:0.308" fill="#abeae7" d="M 47.5,92.5 C 46.7347,95.0961 46.4013,97.7628 46.5,100.5C 45.8476,99.5514 45.5143,98.3847 45.5,97C 45.3068,94.9919 45.9735,93.4919 47.5,92.5 Z"/></g>
<g><path style="opacity:0.416" fill="#ffcaae" d="M 149.5,97.5 C 151.027,97.427 152.027,98.0937 152.5,99.5C 150.973,99.573 149.973,98.9063 149.5,97.5 Z"/></g>
<g><path style="opacity:0.953" fill="#ffa99e" d="M 56.5,103.5 C 55.5081,105.026 54.0081,105.693 52,105.5C 50.6153,105.486 49.4486,105.152 48.5,104.5C 51.2372,104.599 53.9039,104.265 56.5,103.5 Z"/></g>
<g><path style="opacity:0.396" fill="#b4db89" d="M 160.5,103.5 C 164.884,104.01 169.218,104.843 173.5,106C 175.495,106.924 175.828,108.09 174.5,109.5C 169.952,107.511 165.285,105.511 160.5,103.5 Z"/></g>
<g><path style="opacity:0.945" fill="#ffaa9f" d="M 411.5,103.5 C 410.508,105.026 409.008,105.693 407,105.5C 405.615,105.486 404.449,105.152 403.5,104.5C 406.237,104.599 408.904,104.265 411.5,103.5 Z"/></g>
<g><path style="opacity:0.802" fill="#a4dcb3" d="M 373.5,102.5 C 374.537,103.93 375.204,105.597 375.5,107.5C 374.512,112.64 374.179,117.974 374.5,123.5C 374.737,124.791 374.404,125.791 373.5,126.5C 373.5,118.5 373.5,110.5 373.5,102.5 Z"/></g>
<g><path style="opacity:0.553" fill="#ffc49d" d="M 146.5,105.5 C 146.573,107.027 145.906,108.027 144.5,108.5C 144.427,106.973 145.094,105.973 146.5,105.5 Z"/></g>
<g><path style="opacity:0.084" fill="#caeff2" d="M 202.5,107.5 C 203.11,108.391 203.443,109.391 203.5,110.5C 202.833,112.167 202.167,113.833 201.5,115.5C 201.194,112.615 201.527,109.948 202.5,107.5 Z"/></g>
<g><path style="opacity:0.031" fill="#ebfdfa" d="M 375.5,107.5 C 376.11,108.391 376.443,109.391 376.5,110.5C 375.833,114.833 375.167,119.167 374.5,123.5C 374.179,117.974 374.512,112.64 375.5,107.5 Z"/></g>
<g><path style="opacity:0.995" fill="#a6dc88" d="M 135.5,109.5 C 137.833,110.167 140.167,110.833 142.5,111.5C 141.597,114.391 141.264,117.391 141.5,120.5C 141.871,124.003 140.871,127.003 138.5,129.5C 129.688,132.886 121.354,131.886 113.5,126.5C 120.247,127.914 126.913,127.748 133.5,126C 136.631,120.87 137.298,115.37 135.5,109.5 Z"/></g>
<g><path style="opacity:0.494" fill="#ffcba2" d="M 144.5,108.5 C 144.573,110.027 143.906,111.027 142.5,111.5C 142.427,109.973 143.094,108.973 144.5,108.5 Z"/></g>
<g><path style="opacity:0.953" fill="#ffba9d" d="M 101.5,117.5 C 103.452,118.785 105.118,120.451 106.5,122.5C 103.856,121.856 102.189,120.189 101.5,117.5 Z"/></g>
<g><path style="opacity:0.012" fill="#c6f3f1" d="M 201.5,115.5 C 201.741,117.898 201.074,119.898 199.5,121.5C 199.595,119.214 200.262,117.214 201.5,115.5 Z"/></g>
<g><path style="opacity:0.851" fill="#ffc3a8" d="M 209.5,119.5 C 211.404,119.738 212.738,120.738 213.5,122.5C 211.596,122.262 210.262,121.262 209.5,119.5 Z"/></g>
<g><path style="opacity:0.993" fill="#abdd8d" d="M 247.5,126.5 C 238.294,132.459 229.294,132.459 220.5,126.5C 229.534,128.95 237.367,126.95 244,120.5C 244.564,122.887 245.73,124.887 247.5,126.5 Z"/></g>
<g><path style="opacity:0.982" fill="#aada8a" d="M 66.5,126.5 C 62.8309,129.508 58.4976,130.842 53.5,130.5C 48.3349,130.552 43.6682,129.219 39.5,126.5C 48.1473,128.954 55.814,127.288 62.5,121.5C 63.1517,123.808 64.485,125.475 66.5,126.5 Z"/></g>
<g><path style="opacity:0.975" fill="#acdc8e" d="M 421.5,126.5 C 412.363,132.441 403.363,132.441 394.5,126.5C 403.141,128.944 410.807,127.277 417.5,121.5C 418.152,123.808 419.485,125.475 421.5,126.5 Z"/></g>
<g><path style="opacity:0.176" fill="#beefea" d="M 141.5,120.5 C 142.5,120.833 143.167,121.5 143.5,122.5C 142.678,124.389 141.845,126.389 141,128.5C 140.329,129.252 139.496,129.586 138.5,129.5C 140.871,127.003 141.871,124.003 141.5,120.5 Z"/></g>
<g><path style="opacity:0.404" fill="#ffc5aa" d="M 213.5,122.5 C 215.027,122.427 216.027,123.094 216.5,124.5C 214.973,124.573 213.973,123.906 213.5,122.5 Z"/></g>
</svg>
