<svg width="289" height="51" viewBox="0 0 289 51" fill="none" xmlns="http://www.w3.org/2000/svg">
<path d="M26 7.5L45.375 50H31.75L29.6875 44.375H16.4375L14.375 50H0.75L20.125 7.5H26ZM23.0625 26.375L19.875 35H26.25L23.0625 26.375ZM64.625 8.75V18.125H73V26.5625H64.625V35.5C64.625 37.0417 64.9375 38.2708 65.5625 39.1875C66.2292 40.0625 67.1458 40.5 68.3125 40.5C70.1458 40.5 71.8333 40.0417 73.375 39.125V47.5C72.7083 48.4167 71.6458 49.2292 70.1875 49.9375C68.7708 50.6042 67.0208 50.9375 64.9375 50.9375C62.9375 50.9375 61.1042 50.4792 59.4375 49.5625C57.7708 48.6458 56.4167 47.3333 55.375 45.625C54.375 43.9167 53.875 41.8542 53.875 39.4375V26.5625H48.5V20C50.5417 19.4583 52.5417 18.2917 54.5 16.5C56.5 14.6667 57.9583 12.0833 58.875 8.75H64.625ZM91.6875 17.1875C93.7708 17.1875 95.6875 17.5 97.4375 18.125C99.2292 18.7083 100.667 19.5208 101.75 20.5625V29C100.667 28.3333 99.4375 27.7083 98.0625 27.125C96.6875 26.5 95.2083 26.1875 93.625 26.1875C92.625 26.1875 91.7292 26.3958 90.9375 26.8125C90.1875 27.1875 89.8125 27.7917 89.8125 28.625C89.8125 29.2083 90.0417 29.6458 90.5 29.9375C90.9583 30.2292 91.8542 30.5417 93.1875 30.875L95.125 31.375C100.667 32.7917 103.438 35.7708 103.438 40.3125C103.438 42.3958 102.812 44.25 101.562 45.875C100.354 47.4583 98.75 48.7083 96.75 49.625C94.7917 50.5 92.6667 50.9375 90.375 50.9375C88 50.9375 85.7917 50.6042 83.75 49.9375C81.7083 49.2292 79.9583 48.375 78.5 47.375V39C80 39.9167 81.6875 40.6875 83.5625 41.3125C85.4792 41.9375 87.1875 42.25 88.6875 42.25C89.8958 42.25 90.7708 42.1042 91.3125 41.8125C91.8958 41.5208 92.1875 41 92.1875 40.25C92.1875 39.6667 91.8542 39.2292 91.1875 38.9375C90.5208 38.6042 89.5625 38.2292 88.3125 37.8125L85.125 36.8125C82.7917 36.1042 81.0833 35 80 33.5C78.9167 31.9583 78.375 30.0833 78.375 27.875C78.375 25.6667 78.9583 23.7708 80.125 22.1875C81.2917 20.6042 82.875 19.375 84.875 18.5C86.9167 17.625 89.1875 17.1875 91.6875 17.1875ZM139.25 18.125V37.25C139.25 40.125 138.583 42.5833 137.25 44.625C135.958 46.6667 134.167 48.2292 131.875 49.3125C129.583 50.3958 126.958 50.9375 124 50.9375C121.042 50.9375 118.417 50.3958 116.125 49.3125C113.833 48.2292 112.021 46.6667 110.688 44.625C109.396 42.5833 108.75 40.125 108.75 37.25V18.125H119.5L119.562 34.375C119.562 36.5417 119.896 38.125 120.562 39.125C121.271 40.125 122.417 40.625 124 40.625C125.583 40.625 126.708 40.125 127.375 39.125C128.083 38.125 128.438 36.5417 128.438 34.375L128.5 18.125H139.25ZM158.438 18.125V22.25C159.438 20.875 160.5 19.6875 161.625 18.6875C162.75 17.6875 164.375 17.1875 166.5 17.1875C168.625 17.1875 170.521 17.6875 172.188 18.6875C173.854 19.6458 175.167 21.0833 176.125 23C177.125 21.3333 178.438 19.9583 180.062 18.875C181.729 17.75 183.583 17.1875 185.625 17.1875C188.875 17.1875 191.521 18.2917 193.562 20.5C195.646 22.7083 196.688 25.9792 196.688 30.3125V50H185.938L185.875 32C185.875 30.4167 185.458 29.3125 184.625 28.6875C183.833 28.0208 182.896 27.6875 181.812 27.6875C180.854 27.6875 180.021 27.9792 179.312 28.5625C178.646 29.1458 178.062 29.8125 177.562 30.5625V50H166.812L166.75 32C166.75 30.4167 166.333 29.3125 165.5 28.6875C164.708 28.0208 163.771 27.6875 162.688 27.6875C161.729 27.6875 160.917 28 160.25 28.625C159.625 29.2083 159.021 29.9167 158.438 30.75V50H147.688V18.125H158.438ZM217.312 17.1875C218.979 17.1875 220.604 17.5625 222.188 18.3125C223.812 19.0208 225.146 19.9375 226.188 21.0625V18.125H236.938V50H226.188V44.6875C225.396 46.4375 224.188 47.9167 222.562 49.125C220.938 50.3333 218.979 50.9375 216.688 50.9375C214.312 50.9375 212.083 50.3333 210 49.125C207.917 47.9167 206.208 46.0625 204.875 43.5625C203.583 41.0208 202.938 37.8333 202.938 34C202.938 30.4167 203.583 27.375 204.875 24.875C206.208 22.375 207.958 20.4792 210.125 19.1875C212.333 17.8542 214.729 17.1875 217.312 17.1875ZM219.562 27.6875C218.021 27.6875 216.729 28.3125 215.688 29.5625C214.688 30.8125 214.188 32.2917 214.188 34C214.188 35.7083 214.708 37.1458 215.75 38.3125C216.792 39.4792 218.167 40.0625 219.875 40.0625C220.792 40.0625 221.729 39.8333 222.688 39.375C223.646 38.875 224.458 38.1458 225.125 37.1875C225.833 36.1875 226.188 34.9167 226.188 33.375V30.3125C225.271 29.5625 224.229 28.9375 223.062 28.4375C221.938 27.9375 220.771 27.6875 219.562 27.6875ZM267.438 29.9375C266.812 29.6042 266.146 29.3542 265.438 29.1875C264.771 28.9792 263.979 28.875 263.062 28.875C261.604 28.875 260.312 29.3125 259.188 30.1875C258.062 31.0625 257.146 32.2083 256.438 33.625V50H245.688V18.125H256.438V23.8125C257.438 22.1042 258.542 20.625 259.75 19.375C261 18.125 262.625 17.5 264.625 17.5C265.708 17.5 266.646 17.6875 267.438 18.0625V29.9375ZM281.375 0.25C282.583 0.25 283.688 0.541667 284.688 1.125C285.729 1.70833 286.562 2.5 287.188 3.5C287.812 4.45833 288.125 5.54167 288.125 6.75C288.125 7.91667 287.812 9 287.188 10C286.562 11 285.729 11.7917 284.688 12.375C283.688 12.9583 282.583 13.25 281.375 13.25C279.583 13.25 278.021 12.625 276.688 11.375C275.354 10.0833 274.688 8.54167 274.688 6.75C274.688 4.91667 275.354 3.375 276.688 2.125C278.021 0.875 279.583 0.25 281.375 0.25ZM287.438 18.125V50H276.688V26.875H271.5V18.125H287.438Z" fill="white"/>
</svg>
